<svg viewBox="0 0 288.22 29.26" xmlns="http://www.w3.org/2000/svg" xmlns:xlink="http://www.w3.org/1999/xlink"><linearGradient id="a" gradientUnits="userSpaceOnUse" x1="284.81" x2="92.45" y1="375.85" y2="377.34"><stop offset="0" stop-color="#944921"/><stop offset=".53" stop-color="#dba95f"/><stop offset="1" stop-color="#fff"/></linearGradient><linearGradient id="b" x1="284.8" x2="92.46" xlink:href="#a" y1="375.88" y2="377.37"/><linearGradient id="c" x1="284.83" x2="92.48" xlink:href="#a" y1="378.79" y2="380.28"/><linearGradient id="d" x1="284.81" x2="92.45" xlink:href="#a" y1="376.23" y2="377.72"/><linearGradient id="e" x1="284.81" x2="92.46" xlink:href="#a" y1="376.28" y2="377.77"/><linearGradient id="f" x1="284.82" x2="92.44" xlink:href="#a" y1="376.44" y2="377.93"/><linearGradient id="g" x1="284.81" x2="92.45" xlink:href="#a" y1="376.47" y2="377.95"/><linearGradient id="h" x1="284.81" x2="92.45" xlink:href="#a" y1="376.66" y2="378.15"/><linearGradient id="i" x1="284.81" x2="92.45" xlink:href="#a" y1="376.79" y2="378.28"/><linearGradient id="j" x1="422.44" x2="196.14" xlink:href="#a" y1="377.36" y2="376.2"/><linearGradient id="k" x1="422.45" x2="196.13" xlink:href="#a" y1="377.19" y2="376.03"/><linearGradient id="l" x1="422.45" x2="196.13" xlink:href="#a" y1="376.98" y2="375.82"/><linearGradient id="m" x1="422.45" x2="196.13" xlink:href="#a" y1="377.05" y2="375.89"/><linearGradient id="n" x1="422.45" x2="196.15" xlink:href="#a" y1="376.88" y2="375.72"/><linearGradient id="o" x1="422.46" x2="196.11" xlink:href="#a" y1="376.86" y2="375.7"/><linearGradient id="p" x1="422.45" x2="196.14" xlink:href="#a" y1="376.84" y2="375.68"/><linearGradient id="q" x1="422.45" x2="196.14" xlink:href="#a" y1="376.75" y2="375.59"/><linearGradient id="r" x1="422.45" x2="196.15" xlink:href="#a" y1="376.67" y2="375.51"/><linearGradient id="s" x1="422.45" x2="196.13" xlink:href="#a" y1="376.62" y2="375.45"/><g transform="translate(-162.01 -368.84)"><path d="m166.37 382.09a3.25 3.25 0 0 0 0 .48.39.39 0 0 0 .41.38 4.2 4.2 0 0 0 .58 0h1.78c.74 0 1.34 0 1.8-.05a2.81 2.81 0 0 0 1.18-.29 2.23 2.23 0 0 0 .85-.78 11.14 11.14 0 0 0 .82-1.53l.69.14a2.59 2.59 0 0 1 -.06.46c0 .24-.09.53-.16.85s-.14.66-.22 1a8.83 8.83 0 0 1 -.25.88.66.66 0 0 1 -.67.43h-2.79-1.86-4.36a.31.31 0 0 1 -.27-.11.47.47 0 0 1 -.07-.21v-12.17c0-.44-.1-.72-.32-.86a1.38 1.38 0 0 0 -.78-.21 4 4 0 0 0 -.6 0l-.08-.7.84-.13 1.16-.15 1.16-.12a8.24 8.24 0 0 1 .88-.05h6 1.13c.15 0 .23.06.25.19s0 .28 0 .47 0 .41 0 .63 0 .46 0 .7 0 .46 0 .66 0 .37 0 .52 0 .23 0 .26l-.69.07a8.22 8.22 0 0 0 -.48-1.4 1.65 1.65 0 0 0 -.62-.72 2.09 2.09 0 0 0 -.94-.27c-.39 0-.88 0-1.49 0h-2.79a.3.3 0 0 0 -.17.06.24.24 0 0 0 -.07.15v5.33l2.08-.1 1.65-.07 1.13-.06h.52c.26 0 .39.12.39.38a4.15 4.15 0 0 1 0 .49c0 .17 0 .35-.07.55l-5.67-.18z" fill="url(#a)"/><path d="m177.16 369.55c.41-.08.81-.14 1.2-.19l1.09-.15.83-.08h.44a.43.43 0 0 1 .31.11 2.19 2.19 0 0 1 .24.33l3.27 5.06 3.36-4.85a2.12 2.12 0 0 1 .2-.21.88.88 0 0 1 .29-.13 2.5 2.5 0 0 1 .41-.07l.43-.05h.38.27c.18 0 .27.06.27.17a.28.28 0 0 1 -.09.2l-4.72 6.27 5.05 7.82a.18.18 0 0 1 .06.15c0 .13-.09.21-.28.24l-.56.07-.64.05h-.58-.39a.44.44 0 0 1 -.37-.2l-4-6.2-4 5.86a2.3 2.3 0 0 1 -.2.22.7.7 0 0 1 -.3.14 2.61 2.61 0 0 1 -.42.08 3.44 3.44 0 0 1 -.45.05h-.39-.28c-.17 0-.26-.06-.26-.17a.32.32 0 0 1 .08-.2l5.39-7.29-3.52-5.43a2.32 2.32 0 0 0 -.68-.73 1.59 1.59 0 0 0 -.77-.18h-.29-.31z" fill="url(#b)"/><path d="m210 389.6c-.17 0-.37.07-.57.1l-.62.07h-.54a2.93 2.93 0 0 1 -.37 0 2.5 2.5 0 0 1 -1.05-.19 2.25 2.25 0 0 1 -.76-.54 3.63 3.63 0 0 1 -.58-.88c-.17-.34-.34-.74-.52-1.18l-.33-.81a2.72 2.72 0 0 0 -.6-.92 2.67 2.67 0 0 0 -.83-.55 3.79 3.79 0 0 0 -1-.27 10.2 10.2 0 0 0 -1.12-.07 9.65 9.65 0 0 1 -3.26-.52 7.15 7.15 0 0 1 -2.5-1.51 6.68 6.68 0 0 1 -1.61-2.39 8.16 8.16 0 0 1 -.58-3.16 8.72 8.72 0 0 1 .62-3.39 6.43 6.43 0 0 1 1.75-2.45 7.6 7.6 0 0 1 2.73-1.5 11.75 11.75 0 0 1 3.57-.51 9.58 9.58 0 0 1 3.22.51 7 7 0 0 1 2.46 1.46 6.43 6.43 0 0 1 1.57 2.35 8.48 8.48 0 0 1 .55 3.16 8.25 8.25 0 0 1 -.43 2.74 6.83 6.83 0 0 1 -3 3.74 9.22 9.22 0 0 1 -2.37 1v.1c.43 0 .82.1 1.2.17a4.14 4.14 0 0 1 1 .33 3 3 0 0 1 .84.63 3.33 3.33 0 0 1 .63 1.05l.19.51c.18.49.34.87.48 1.16a2.58 2.58 0 0 0 .47.68 1.14 1.14 0 0 0 .55.32 3.1 3.1 0 0 0 .74.08zm-8.88-19.54a5.07 5.07 0 0 0 -2.33.5 4.53 4.53 0 0 0 -1.58 1.36 5.74 5.74 0 0 0 -.91 1.95 9.15 9.15 0 0 0 -.29 2.29 11 11 0 0 0 .31 2.61 7 7 0 0 0 1 2.31 5 5 0 0 0 4.38 2.28 4.79 4.79 0 0 0 2.32-.53 4.48 4.48 0 0 0 1.59-1.4 5.93 5.93 0 0 0 .9-2 8.92 8.92 0 0 0 .29-2.31 10.7 10.7 0 0 0 -.31-2.6 7 7 0 0 0 -1-2.26 5.07 5.07 0 0 0 -4.38-2.21z" fill="url(#c)"/><path d="m217.64 379.43a3.89 3.89 0 0 0 .26 1.61 2.66 2.66 0 0 0 .77 1 3.28 3.28 0 0 0 1.17.57 5.92 5.92 0 0 0 1.44.17 6.94 6.94 0 0 0 2-.29 15.92 15.92 0 0 0 1.91-.73v-12.03q0-.28.33-.36l.51-.06h.56.5.34c.23 0 .34.11.34.32v14.17a.34.34 0 0 1 -.34.36l-.5.07-.53.05h-.46-.32a.29.29 0 0 1 -.33-.32l-.1-1a18.07 18.07 0 0 1 -2.73 1.09 10 10 0 0 1 -2.9.44 6.46 6.46 0 0 1 -1.73-.23 3.94 3.94 0 0 1 -1.42-.7 3.41 3.41 0 0 1 -1-1.19 4 4 0 0 1 -.35-1.72v-9.2a1.8 1.8 0 0 0 -.07-.57.74.74 0 0 0 -.23-.35.7.7 0 0 0 -.34-.18 2.06 2.06 0 0 0 -.45-.05 4.45 4.45 0 0 0 -.61 0l-.08-.7c.5-.08 1-.16 1.42-.21s.84-.11 1.19-.14l.86-.08h.44c.3 0 .45.14.45.41z" fill="url(#d)"/><path d="m232.64 369.55c.5-.08 1-.16 1.42-.21s.84-.11 1.19-.14l.86-.08h.44c.3 0 .45.14.45.41v14.21a.34.34 0 0 1 -.34.36l-.51.07-.56.05h-.5-.34c-.22 0-.33-.1-.33-.32v-12.54a1.8 1.8 0 0 0 -.07-.57.74.74 0 0 0 -.23-.35.7.7 0 0 0 -.34-.18 2.06 2.06 0 0 0 -.45-.05 4.17 4.17 0 0 0 -.61 0z" fill="url(#e)"/><path d="m251.53 372.82a4 4 0 0 0 -.45-1.2 3.06 3.06 0 0 0 -.77-.83 3.38 3.38 0 0 0 -1-.49 5 5 0 0 0 -1.24-.15 5.63 5.63 0 0 0 -1.25.14 3 3 0 0 0 -1 .47 2.28 2.28 0 0 0 -.73.81 2.38 2.38 0 0 0 -.27 1.17 1.74 1.74 0 0 0 .32 1.05 3.14 3.14 0 0 0 .85.76 6.36 6.36 0 0 0 1.23.57l1.44.51 1.66.63a6.58 6.58 0 0 1 1.48.82 3.94 3.94 0 0 1 1.07 1.16 3.28 3.28 0 0 1 .41 1.69 4.11 4.11 0 0 1 -.27 1.54 3.56 3.56 0 0 1 -.75 1.17 4.43 4.43 0 0 1 -1.11.85 7.54 7.54 0 0 1 -1.37.55 8.45 8.45 0 0 1 -1.53.29 13.9 13.9 0 0 1 -1.57.09 16.26 16.26 0 0 1 -1.85-.1c-.61-.07-1.22-.16-1.83-.29a.33.33 0 0 1 -.2-.11.22.22 0 0 1 -.09-.17q0-.27-.06-.78c0-.34 0-.69 0-1s0-.68 0-1 0-.45 0-.5l.7-.06a3.32 3.32 0 0 0 .43 1.31 3 3 0 0 0 .86.92 3.58 3.58 0 0 0 1.19.53 5.6 5.6 0 0 0 1.45.17 5.92 5.92 0 0 0 1.34-.14 3.71 3.71 0 0 0 1.15-.47 2.47 2.47 0 0 0 .81-.83 2.29 2.29 0 0 0 .31-1.23 1.62 1.62 0 0 0 -.32-1 3 3 0 0 0 -.85-.74 6.91 6.91 0 0 0 -1.22-.58l-1.42-.52c-.55-.2-1.1-.42-1.66-.65a7 7 0 0 1 -1.49-.85 3.9 3.9 0 0 1 -1.06-1.19 3.43 3.43 0 0 1 -.41-1.73 3.85 3.85 0 0 1 .53-2.08 4.18 4.18 0 0 1 1.4-1.34 6.08 6.08 0 0 1 2-.72 11.15 11.15 0 0 1 2.25-.22 14.57 14.57 0 0 1 1.66.11c.6.07 1.16.17 1.68.28a.47.47 0 0 1 .21.11.33.33 0 0 1 .08.17c0 .18 0 .43.06.74s0 .64 0 1 0 .62.05.88 0 .42 0 .47z" fill="url(#f)"/><path d="m257 369.55c.5-.08 1-.16 1.42-.21s.84-.11 1.19-.14l.87-.08h.44c.29 0 .44.14.44.41v14.21a.33.33 0 0 1 -.33.36l-.52.07-.55.05h-.5-.34c-.22 0-.33-.1-.33-.32v-12.54a1.77 1.77 0 0 0 -.08-.57.76.76 0 0 0 -.57-.53 2 2 0 0 0 -.44-.05 4.3 4.3 0 0 0 -.62 0z" fill="url(#g)"/><path d="m270 370.4c-.61 0-1.1 0-1.49 0a2.06 2.06 0 0 0 -1 .3 1.78 1.78 0 0 0 -.64.77 7.73 7.73 0 0 0 -.49 1.5l-.7-.06s0-.13 0-.28 0-.34 0-.55 0-.44 0-.69 0-.5.05-.75 0-.46 0-.67 0-.37.06-.48.09-.19.25-.19h2.41 2.12 4.6 2.14 2.42a.2.2 0 0 1 .22.19c0 .11 0 .28.05.48s0 .43 0 .67 0 .49 0 .75 0 .48 0 .69 0 .4 0 .55v.37l-.69.06a8.6 8.6 0 0 0 -.48-1.5 1.73 1.73 0 0 0 -.61-.77 1.94 1.94 0 0 0 -.95-.3c-.38 0-.88 0-1.49 0h-1.77v13.31a.33.33 0 0 1 -.33.36l-.52.07-.55.05h-.5-.11c-.22 0-.33-.1-.33-.32v-13.56z" fill="url(#h)"/><path d="m287.56 382.09a3.25 3.25 0 0 0 0 .48.39.39 0 0 0 .41.38 4.2 4.2 0 0 0 .58 0h1.78c.74 0 1.34 0 1.8-.05a2.81 2.81 0 0 0 1.18-.29 2.31 2.31 0 0 0 .85-.78 11.14 11.14 0 0 0 .82-1.53l.7.14c0 .06 0 .21-.07.46s-.09.53-.16.85-.13.66-.22 1a8.83 8.83 0 0 1 -.25.88.66.66 0 0 1 -.68.43h-2.78-1.86-4.37a.3.3 0 0 1 -.26-.11.37.37 0 0 1 -.07-.21v-12.17c0-.44-.1-.72-.32-.86a1.39 1.39 0 0 0 -.79-.21 4 4 0 0 0 -.59 0l-.08-.7.84-.13 1.16-.15 1.16-.12a8.24 8.24 0 0 1 .88-.05h6 1.13c.15 0 .23.06.25.19s0 .28 0 .47 0 .41 0 .63 0 .46 0 .7 0 .46 0 .66 0 .37 0 .52 0 .23 0 .26l-.69.07a8.22 8.22 0 0 0 -.48-1.4 1.65 1.65 0 0 0 -.62-.72 2.13 2.13 0 0 0 -.95-.27c-.38 0-.87 0-1.48 0h-2.58a.38.38 0 0 0 -.18.06.3.3 0 0 0 -.06.15v5.33l2.08-.1 1.65-.07 1.12-.06h.53c.26 0 .39.12.39.38a4.15 4.15 0 0 1 0 .49c0 .17 0 .35-.07.55l-5.67-.18z" fill="url(#i)"/><path d="m302.68 370.4c-.6 0-1.09 0-1.49 0a2 2 0 0 0 -1 .3 1.87 1.87 0 0 0 -.65.77 8.49 8.49 0 0 0 -.49 1.5l-.69-.06s0-.13 0-.28 0-.34 0-.55 0-.44 0-.69 0-.5 0-.75 0-.46.05-.67 0-.37.06-.48.09-.19.25-.19h2.4 2.12 4.76 2.13 2.42a.19.19 0 0 1 .22.19 4 4 0 0 1 .05.48c0 .21 0 .43.05.67v.75.69s0 .4 0 .55 0 .24 0 .28l-.69.06a9.55 9.55 0 0 0 -.48-1.5 1.73 1.73 0 0 0 -.61-.77 1.94 1.94 0 0 0 -.95-.3c-.39 0-.88 0-1.49 0h-1.65v13.31a.33.33 0 0 1 -.33.36l-.52.07-.56.05h-.49-.34c-.22 0-.34-.1-.34-.32v-13.47z" fill="url(#j)"/><path d="m315.92 369.55c.5-.08 1-.16 1.42-.21s.84-.11 1.19-.14l.87-.08h.44c.29 0 .44.14.44.41v14.21a.33.33 0 0 1 -.33.36l-.52.07-.55.05h-.5-.38c-.22 0-.33-.1-.33-.32v-12.54a1.77 1.77 0 0 0 -.08-.57.73.73 0 0 0 -.22-.35.75.75 0 0 0 -.34-.18 2.14 2.14 0 0 0 -.45-.05 4.08 4.08 0 0 0 -.61 0z" fill="url(#k)"/><path d="m340.62 372.48-5.16 11.52c0 .1-.12.15-.25.17h-.56-.65a.3.3 0 0 1 -.3-.19l-4.84-11.7-1.58 11.72c0 .1-.1.16-.24.17h-.62-.77c-.13 0-.19-.05-.19-.14a.35.35 0 0 1 0-.12l2.7-13.46-.44-1.11a.39.39 0 0 1 0-.13c0-.14.09-.22.28-.24s.32 0 .51-.07l.59-.06h.51.35a.36.36 0 0 1 .24.08 1 1 0 0 1 .15.21l4.95 11.95 5.08-10.64-.14-1.05a.22.22 0 0 1 0-.1c0-.15.09-.24.26-.27l.5-.02.57-.06h.51.34c.23 0 .36.1.38.29l1.89 14.52s0 .06 0 .08v.06a.27.27 0 0 1 -.26.28l-.54.07-.6.05h-.53-.35a.41.41 0 0 1 -.21 0 .18.18 0 0 1 -.1-.15z" fill="url(#l)"/><path d="m353.07 382.09v.48a.49.49 0 0 0 .12.26.41.41 0 0 0 .29.12 4.47 4.47 0 0 0 .59 0h1.78c.74 0 1.34 0 1.8-.05a2.81 2.81 0 0 0 1.18-.29 2.31 2.31 0 0 0 .85-.78 11.14 11.14 0 0 0 .82-1.53l.69.14a4.29 4.29 0 0 1 -.06.46c0 .24-.09.53-.16.85s-.14.66-.22 1-.17.63-.25.88a.66.66 0 0 1 -.68.43h-2.82-1.85-4.37a.29.29 0 0 1 -.26-.11.37.37 0 0 1 -.07-.21v-12.17a1 1 0 0 0 -.32-.86 1.39 1.39 0 0 0 -.79-.21 4 4 0 0 0 -.59 0l-.08-.7.84-.13 1.16-.15 1.16-.12a8.24 8.24 0 0 1 .88-.05h6 1.13c.15 0 .23.06.25.19s0 .28 0 .47 0 .41 0 .63v.7.66s0 .37 0 .52 0 .23 0 .26l-.69.07a8.22 8.22 0 0 0 -.48-1.4 1.65 1.65 0 0 0 -.62-.72 2.13 2.13 0 0 0 -.95-.27c-.38 0-.88 0-1.48 0h-2.79a.38.38 0 0 0 -.18.06.3.3 0 0 0 -.06.15v5.33l2.08-.1 1.64-.07 1.13-.06h.53c.26 0 .39.12.39.38a4.15 4.15 0 0 1 0 .49c0 .17 0 .35-.07.55l-5.67-.18z" fill="url(#m)"/><path d="m369.61 377.24a10.51 10.51 0 0 0 2-.3 4 4 0 0 0 1.43-.67 2.66 2.66 0 0 0 .88-1.11 4 4 0 0 0 .3-1.63 3.59 3.59 0 0 0 -.3-1.5 3.19 3.19 0 0 0 -.85-1.1 3.63 3.63 0 0 0 -1.29-.69 5.79 5.79 0 0 0 -1.66-.23 4.54 4.54 0 0 0 -.94.07c-.21 0-.31.21-.31.48v13.15a.34.34 0 0 1 -.34.36l-.52.07-.55.05h-.5-.34c-.22 0-.33-.1-.33-.32v-12.65a1 1 0 0 0 -.3-.85 1.39 1.39 0 0 0 -.79-.21 4.45 4.45 0 0 0 -.61 0l-.08-.7c.81-.13 1.69-.24 2.64-.35a28 28 0 0 1 3.21-.17c.54 0 1.09 0 1.63.07a10.59 10.59 0 0 1 1.56.25 7.22 7.22 0 0 1 1.38.47 4 4 0 0 1 1.12.74 3.45 3.45 0 0 1 .74 1.09 3.66 3.66 0 0 1 .27 1.46 3.9 3.9 0 0 1 -.61 2.23 4.84 4.84 0 0 1 -1.62 1.49 7.93 7.93 0 0 1 -2.33.85 15 15 0 0 1 -2.72.33z" fill="url(#n)"/><path d="m380.06 369.55c.5-.08 1-.16 1.42-.21s.84-.11 1.19-.14l.87-.08h.44c.29 0 .44.14.44.41v14.21a.33.33 0 0 1 -.33.36l-.52.07-.55.05h-.5-.34c-.22 0-.33-.1-.33-.32v-12.54a1.77 1.77 0 0 0 -.08-.57.76.76 0 0 0 -.57-.53 2 2 0 0 0 -.45-.05 4.26 4.26 0 0 0 -.61 0z" fill="url(#o)"/><path d="m393.69 382.09v.48a.48.48 0 0 0 .11.26.42.42 0 0 0 .3.12 4.3 4.3 0 0 0 .58 0h1.79c.73 0 1.33 0 1.8-.05a2.73 2.73 0 0 0 1.17-.29 2.17 2.17 0 0 0 .85-.78 11 11 0 0 0 .83-1.53l.69.14a4.29 4.29 0 0 1 -.06.46c0 .24-.1.53-.16.85s-.14.66-.23 1-.16.63-.24.88a.67.67 0 0 1 -.68.43h-2.79-1.86-4.36a.28.28 0 0 1 -.26-.11.37.37 0 0 1 -.07-.21v-12.17a1 1 0 0 0 -.32-.86 1.41 1.41 0 0 0 -.79-.21 4 4 0 0 0 -.59 0l-.09-.7.85-.13 1.15-.15 1.16-.12a8.37 8.37 0 0 1 .88-.05h6 1.14a.22.22 0 0 1 .25.19v.47s0 .41 0 .63 0 .46 0 .7 0 .46 0 .66 0 .37 0 .52v.26l-.69.07a8.22 8.22 0 0 0 -.48-1.4 1.63 1.63 0 0 0 -.61-.72 2.17 2.17 0 0 0 -1-.27c-.38 0-.88 0-1.49 0h-2.79a.34.34 0 0 0 -.17.06.19.19 0 0 0 -.06.15 1.86 1.86 0 0 0 0 .26v5.07l2.08-.1 1.65-.07 1.13-.06h.52c.26 0 .39.12.39.38a4.15 4.15 0 0 1 0 .49c0 .17 0 .35-.07.55l-5.67-.18z" fill="url(#p)"/><path d="m419.76 383.11a9.69 9.69 0 0 1 -1.57.62c-.58.16-1.14.3-1.69.4s-1.06.18-1.53.22a11.37 11.37 0 0 1 -1.16.07 9.8 9.8 0 0 1 -3.49-.59 8.1 8.1 0 0 1 -2.7-1.62 7.32 7.32 0 0 1 -1.75-2.47 7.71 7.71 0 0 1 -.62-3.13 7.24 7.24 0 0 1 .7-3.26 7 7 0 0 1 1.95-2.35 9 9 0 0 1 3-1.47 13.17 13.17 0 0 1 3.69-.5 16.41 16.41 0 0 1 2.15.14c.68.08 1.35.19 2 .32a.33.33 0 0 1 .2.11.32.32 0 0 1 .09.17v.45s0 .39 0 .61 0 .43 0 .66 0 .42 0 .62 0 .35 0 .48 0 .22 0 .26l-.69.06a2.62 2.62 0 0 0 -.51-1.33 3.28 3.28 0 0 0 -1-.88 5.14 5.14 0 0 0 -1.38-.49 7.63 7.63 0 0 0 -1.45-.21 6.74 6.74 0 0 0 -2.62.46 5 5 0 0 0 -1.86 1.26 5.29 5.29 0 0 0 -1.11 1.9 7.58 7.58 0 0 0 -.36 2.39 8.52 8.52 0 0 0 .45 2.8 6.1 6.1 0 0 0 1.35 2.25 6.24 6.24 0 0 0 2.24 1.49 8.16 8.16 0 0 0 3.14.55 9.56 9.56 0 0 0 2.09-.22 15.08 15.08 0 0 0 2.05-.58z" fill="url(#q)"/><path d="m427.51 382.09v.48a.48.48 0 0 0 .11.26.42.42 0 0 0 .3.12 4.3 4.3 0 0 0 .58 0h1.79c.73 0 1.33 0 1.8-.05a2.73 2.73 0 0 0 1.17-.29 2.23 2.23 0 0 0 .85-.78 11 11 0 0 0 .83-1.53l.69.14a3.12 3.12 0 0 1 -.07.46c0 .24-.09.53-.15.85s-.14.66-.22 1-.17.63-.25.88a.67.67 0 0 1 -.68.43h-2.79-1.86-4.36a.28.28 0 0 1 -.25-.06.37.37 0 0 1 -.07-.21v-12.22a1 1 0 0 0 -.32-.86 1.41 1.41 0 0 0 -.79-.21 4.12 4.12 0 0 0 -.6 0l-.08-.7.85-.13 1.15-.15 1.16-.12a8.37 8.37 0 0 1 .88-.05h6 1.14a.22.22 0 0 1 .25.19v.47s0 .41 0 .63 0 .46 0 .7 0 .46 0 .66 0 .37 0 .52v.26l-.69.07a8.22 8.22 0 0 0 -.48-1.4 1.63 1.63 0 0 0 -.61-.72 2.17 2.17 0 0 0 -1-.27c-.38 0-.88 0-1.49 0h-2.79a.34.34 0 0 0 -.17.06.19.19 0 0 0 -.06.15 1.86 1.86 0 0 0 0 .26v5.07l2.08-.1 1.65-.07 1.13-.06h.52c.26 0 .39.12.39.38a4.15 4.15 0 0 1 0 .49c0 .17 0 .35-.07.55l-5.67-.18z" fill="url(#r)"/><path d="m448.53 372.82a3.57 3.57 0 0 0 -.45-1.2 2.78 2.78 0 0 0 -.77-.83 3.17 3.17 0 0 0 -1-.49 4.84 4.84 0 0 0 -1.24-.15 5.61 5.61 0 0 0 -1.24.14 3 3 0 0 0 -1.05.47 2.19 2.19 0 0 0 -.73.81 2.38 2.38 0 0 0 -.27 1.17 1.74 1.74 0 0 0 .32 1.05 2.87 2.87 0 0 0 .85.76 6 6 0 0 0 1.22.57l1.44.51c.56.2 1.11.41 1.66.63a6.65 6.65 0 0 1 1.49.82 3.94 3.94 0 0 1 1.07 1.16 3.28 3.28 0 0 1 .41 1.69 4.11 4.11 0 0 1 -.27 1.54 3.56 3.56 0 0 1 -.75 1.17 4.3 4.3 0 0 1 -1.12.85 7.44 7.44 0 0 1 -1.36.55 8.62 8.62 0 0 1 -1.53.29 14.08 14.08 0 0 1 -1.58.09 16.21 16.21 0 0 1 -1.84-.1c-.62-.07-1.23-.16-1.84-.29a.36.36 0 0 1 -.2-.11.32.32 0 0 1 -.09-.17c0-.18 0-.44-.05-.78s0-.69-.05-1 0-.68 0-1 0-.45 0-.5l.69-.06a3.33 3.33 0 0 0 .44 1.31 2.91 2.91 0 0 0 .86.92 3.49 3.49 0 0 0 1.19.53 5.52 5.52 0 0 0 1.44.17 5.92 5.92 0 0 0 1.34-.14 3.77 3.77 0 0 0 1.16-.47 2.47 2.47 0 0 0 .81-.83 2.39 2.39 0 0 0 .3-1.23 1.62 1.62 0 0 0 -.31-1 3.09 3.09 0 0 0 -.85-.74 7.27 7.27 0 0 0 -1.22-.58l-1.42-.52c-.55-.2-1.11-.42-1.66-.65a7 7 0 0 1 -1.49-.85 3.93 3.93 0 0 1 -1.07-1.19 3.43 3.43 0 0 1 -.4-1.73 3.76 3.76 0 0 1 .53-2.08 4.09 4.09 0 0 1 1.4-1.34 6 6 0 0 1 2-.72 11.29 11.29 0 0 1 2.25-.22 14.42 14.42 0 0 1 1.66.11c.6.07 1.17.17 1.69.28a.43.43 0 0 1 .2.11.35.35 0 0 1 .09.17c0 .18 0 .43.06.74s0 .64.05 1 0 .62 0 .88 0 .42 0 .47z" fill="url(#s)"/><g fill="#c49a6c"><path d="m163.67 396.1-.67 1.9h-.81l2.06-6.07h1l2.07 6.07h-.84l-.64-1.91zm2-.61-.59-1.75c-.14-.4-.23-.76-.32-1.11-.09.36-.19.73-.31 1.1l-.59 1.76z"/><path d="m178.63 397.81a3.94 3.94 0 0 1 -1.6.29 2.84 2.84 0 0 1 -3-3.07 3 3 0 0 1 3.17-3.19 3.22 3.22 0 0 1 1.44.27l-.19.64a2.88 2.88 0 0 0 -1.22-.25 2.26 2.26 0 0 0 -2.37 2.5 2.21 2.21 0 0 0 2.33 2.44 3.17 3.17 0 0 0 1.28-.25z"/><path d="m186.75 394.91c0 2.09-1.27 3.2-2.82 3.2a2.78 2.78 0 0 1 -2.72-3.08 2.88 2.88 0 0 1 2.81-3.19 2.76 2.76 0 0 1 2.73 3.07zm-4.75.09c0 1.3.71 2.46 1.94 2.46s1.94-1.15 1.94-2.52c0-1.21-.63-2.47-1.93-2.47s-1.95 1.21-1.95 2.53z"/><path d="m189.91 391.94h.78v5.41h2.59v.65h-3.37z"/><path d="m196.3 391.94h.78v5.41h2.59v.65h-3.37z"/><path d="m205.83 395.16h-2.36v2.19h2.63v.65h-3.41v-6.07h3.31v.66h-2.49v1.91h2.36z"/><path d="m213.5 397.81a4 4 0 0 1 -1.6.29 2.84 2.84 0 0 1 -3-3.07 3 3 0 0 1 3.17-3.19 3.26 3.26 0 0 1 1.44.27l-.19.64a2.93 2.93 0 0 0 -1.23-.25 2.25 2.25 0 0 0 -2.36 2.5 2.2 2.2 0 0 0 2.33 2.44 3.2 3.2 0 0 0 1.28-.25z"/><path d="m218 392.61h-1.84v-.67h4.49v.67h-1.85v5.39h-.8z"/><path d="m224.27 391.94v6.06h-.78v-6.07z"/><path d="m233 394.91c0 2.09-1.27 3.2-2.82 3.2a2.78 2.78 0 0 1 -2.73-3.08 2.89 2.89 0 0 1 2.82-3.19 2.77 2.77 0 0 1 2.73 3.07zm-4.71.1c0 1.3.7 2.46 1.93 2.46s1.95-1.15 1.95-2.52c0-1.21-.63-2.47-1.94-2.47s-1.97 1.2-1.97 2.52z"/><path d="m236.12 398v-6.07h.88l1.94 3.07a17.49 17.49 0 0 1 1.09 2c-.07-.81-.09-1.55-.09-2.49v-2.54h.74v6.03h-.79l-1.89-3.07a21 21 0 0 1 -1.14-2c0 .77.06 1.5.06 2.5v2.57z"/><path d="m253.42 394.91c0 2.09-1.27 3.2-2.82 3.2a2.78 2.78 0 0 1 -2.72-3.08 2.88 2.88 0 0 1 2.81-3.19 2.76 2.76 0 0 1 2.73 3.07zm-4.71.1c0 1.3.71 2.46 1.94 2.46s1.94-1.15 1.94-2.52c0-1.21-.63-2.47-1.93-2.47s-1.95 1.2-1.95 2.52z"/><path d="m256.58 391.94h3.27v.66h-2.49v2h2.3v.65h-2.3v2.75h-.78z"/><path d="m267.94 392.61h-1.85v-.67h4.49v.67h-1.85v5.39h-.79z"/><path d="m274.18 391.94v2.54h2.94v-2.54h.79v6.06h-.79v-2.85h-2.94v2.85h-.78v-6.07z"/><path d="m284.55 395.16h-2.36v2.19h2.63v.65h-3.41v-6.07h3.28v.66h-2.5v1.91h2.36z"/><path d="m292.7 398-1.54-6.07h.84l.72 3.07c.18.76.34 1.51.45 2.1.1-.61.29-1.33.5-2.11l.81-3.06h.82l.7 3.07c.17.72.33 1.44.42 2.08.12-.67.29-1.34.48-2.1l.81-3.06h.8l-1.66 6.08h-.85l-.77-3.16a18 18 0 0 1 -.39-2c-.11.6-.25 1.19-.47 2l-.86 3.16z"/><path d="m306.65 394.91c0 2.09-1.27 3.2-2.82 3.2a2.79 2.79 0 0 1 -2.73-3.11 2.89 2.89 0 0 1 2.82-3.19 2.76 2.76 0 0 1 2.73 3.1zm-4.71.1c0 1.3.7 2.46 1.94 2.46s1.94-1.15 1.94-2.52c0-1.21-.63-2.47-1.94-2.47s-1.94 1.2-1.94 2.52z"/><path d="m309.8 392a8.33 8.33 0 0 1 1.51-.13 2.46 2.46 0 0 1 1.75.5 1.49 1.49 0 0 1 .48 1.15 1.6 1.6 0 0 1 -1.14 1.55 1.49 1.49 0 0 1 .89 1.22 9.57 9.57 0 0 0 .47 1.67h-.76a7.7 7.7 0 0 1 -.41-1.45c-.18-.84-.5-1.15-1.21-1.18h-.74v2.67h-.79zm.79 2.76h.8c.84 0 1.37-.45 1.37-1.15s-.57-1.12-1.4-1.13a3 3 0 0 0 -.77.07z"/><path d="m316.79 391.94h.78v5.41h2.6v.65h-3.38z"/><path d="m323.18 392a11.42 11.42 0 0 1 1.66-.13 3.5 3.5 0 0 1 2.46.76 2.81 2.81 0 0 1 .86 2.18 3.21 3.21 0 0 1 -.88 2.36 3.75 3.75 0 0 1 -2.68.87 14 14 0 0 1 -1.42-.07zm.78 5.37a5.91 5.91 0 0 0 .79 0 2.33 2.33 0 0 0 2.59-2.57 2.16 2.16 0 0 0 -2.46-2.34 4.21 4.21 0 0 0 -.92.08z"/><path d="m332.37 391.84a10.43 10.43 0 0 1 -.85 2.13l-.5.07a12.63 12.63 0 0 0 .53-2.12z"/><path d="m335.22 397.05a2.72 2.72 0 0 0 1.4.4c.81 0 1.27-.42 1.27-1s-.32-.89-1.14-1.2c-1-.35-1.6-.87-1.6-1.72a1.74 1.74 0 0 1 2-1.65 2.67 2.67 0 0 1 1.34.3l-.21.64a2.43 2.43 0 0 0 -1.16-.29c-.82 0-1.14.49-1.14.91s.37.84 1.21 1.17c1 .39 1.55.89 1.55 1.78s-.7 1.75-2.13 1.75a3.13 3.13 0 0 1 -1.55-.39z"/><path d="m346 391.94h3.27v.66h-2.49v2h2.22v.65h-2.3v2.75h-.7z"/><path d="m353.27 391.94v6.06h-.79v-6.07z"/><path d="m356.78 398v-6.07h.85l1.95 3.07a15.88 15.88 0 0 1 1.08 2c-.07-.81-.09-1.55-.09-2.49v-2.54h.74v6.03h-.79l-1.93-3.08a18.92 18.92 0 0 1 -1.13-2c.05.77.06 1.5.06 2.5v2.58z"/><path d="m368 395.16h-2.36v2.19h2.63v.65h-3.41v-6.07h3.28v.66h-2.5v1.91h2.36z"/><path d="m371.3 397.05a2.76 2.76 0 0 0 1.41.4c.8 0 1.26-.42 1.26-1s-.32-.89-1.14-1.2c-1-.35-1.6-.87-1.6-1.72a1.74 1.74 0 0 1 2-1.65 2.67 2.67 0 0 1 1.34.3l-.21.64a2.43 2.43 0 0 0 -1.16-.29c-.82 0-1.14.49-1.14.91s.37.84 1.21 1.17c1 .39 1.55.89 1.55 1.78s-.7 1.75-2.13 1.75a3.13 3.13 0 0 1 -1.55-.39z"/><path d="m379.14 392.61h-1.85v-.67h4.5v.67h-1.86v5.39h-.79z"/><path d="m389.44 392.61h-1.85v-.67h4.49v.67h-1.85v5.39h-.79z"/><path d="m395.68 391.94v6.06h-.78v-6.07z"/><path d="m404.31 395.34c-.05-.84-.1-1.86-.09-2.62-.21.71-.46 1.47-.77 2.31l-1.1 2.97h-.59l-1-2.89c-.29-.85-.53-1.64-.71-2.36 0 .76-.07 1.78-.12 2.69l-.16 2.6h-.77l.42-6.07h1l1 2.93c.25.75.46 1.42.61 2.05.15-.61.37-1.28.64-2.05l1.08-2.93h1l.37 6.07h-.76z"/><path d="m411.71 395.16h-2.36v2.19h2.65v.65h-3.41v-6.07h3.28v.66h-2.5v1.91h2.36z"/><path d="m415.14 392a9.34 9.34 0 0 1 1.5-.12 2.48 2.48 0 0 1 1.71.51 1.65 1.65 0 0 1 .53 1.27 1.79 1.79 0 0 1 -.47 1.29 2.5 2.5 0 0 1 -1.86.67 3 3 0 0 1 -.63-.05v2.43h-.78zm.78 2.93a2.93 2.93 0 0 0 .65.06c.95 0 1.52-.46 1.52-1.3s-.56-1.18-1.43-1.18a3.16 3.16 0 0 0 -.74.06z"/><path d="m422.85 391.94v6.06h-.78v-6.07z"/><path d="m429.5 395.16h-2.35v2.19h2.63v.65h-3.42v-6.07h3.28v.66h-2.49v1.91h2.35z"/><path d="m437.17 397.81a3.9 3.9 0 0 1 -1.6.29 2.84 2.84 0 0 1 -3-3.07 3 3 0 0 1 3.17-3.19 3.18 3.18 0 0 1 1.44.27l-.19.64a2.88 2.88 0 0 0 -1.22-.25 2.26 2.26 0 0 0 -2.37 2.5 2.21 2.21 0 0 0 2.33 2.44 3.17 3.17 0 0 0 1.28-.25z"/><path d="m443.44 395.16h-2.36v2.19h2.63v.65h-3.42v-6.07h3.28v.66h-2.49v1.91h2.36z"/><path d="m446.76 397.05a2.72 2.72 0 0 0 1.4.4c.8 0 1.27-.42 1.27-1s-.32-.89-1.14-1.2c-1-.35-1.61-.87-1.61-1.72a1.75 1.75 0 0 1 2-1.65 2.67 2.67 0 0 1 1.34.3l-.22.64a2.38 2.38 0 0 0 -1.15-.29c-.83 0-1.14.49-1.14.91s.37.84 1.2 1.17c1 .39 1.55.89 1.55 1.78s-.69 1.75-2.12 1.75a3.07 3.07 0 0 1 -1.55-.39z"/></g></g></svg>